<svg xmlns="http://www.w3.org/2000/svg" viewBox="0 0 64 64">
  <rect width="64" height="64" rx="14" fill="#0b0b0c"/>
  <g transform="translate(8 18) scale(0.1565)" fill="#fff">
    <path d="M53.17,69.95c-10.66,0-20.49,3.45-28.41,9.27V30.51c0-5.24-4.25-9.49-9.49-9.49s-9.49,4.25-9.49,9.49v89.41h.15c1.82,24.05,22.27,43.01,47.25,43.01s47.4-20.81,47.4-46.48-21.22-46.48-47.4-46.48ZM53.17,143.96c-15.2,0-27.53-12.32-27.53-27.53s12.32-27.53,27.53-27.53,27.53,12.32,27.53,27.53-12.32,27.53-27.53,27.53Z"/>
    <path d="M133.29,71.55c-26.18,0-47.4,20.81-47.4,46.48s21.22,46.48,47.4,46.48,47.4-20.81,47.4-46.48-21.22-46.48-47.4-46.48ZM133.29,145.56c-15.2,0-27.53-12.32-27.53-27.53s12.32-27.53,27.53-27.53,27.53,12.32,27.53,27.53-12.32,27.53-27.53,27.53Z"/>
    <path d="M253.41,147.02l.04-.04-26.11-30.79,23.62-27.4c.83-.69,1.55-1.53,2.13-2.47l.24-.28-.05-.04c1.22-2.16,1.77-4.83,1.35-7.61-.91-6.02-5.94-10.26-11.25-9.46-2.42.36-4.47,1.72-5.91,3.65h0s-23.75,27.55-23.75,27.55l-20.97-24.73c-.54-.92-1.25-1.75-2.08-2.46l-.23-.28-.05.04c-1.91-1.52-4.41-2.45-7.17-2.45-5.96,0-10.79,4.32-10.79,9.65,0,2.43,1.01,4.64,2.67,6.34h0s25.09,29.6,25.09,29.6l-24.96,28.96c-2.81,2.28-4.37,6.24-3.74,10.46.91,6.02,5.94,10.26,11.25,9.46,2.52-.38,4.63-1.83,6.08-3.88l.04.04,24.96-28.95,22.12,26.09c1.8,3.09,5.41,5.21,9.58,5.21,5.96,0,10.79-4.32,10.79-9.65,0-2.53-1.09-4.82-2.87-6.54Z"/>
    <path d="M280.21,85.79l-1.73-4.53c-.03-.08-.06-.16-.09-.23l-.38-.99c-.05-.13-.12-.25-.19-.37-1.32-3.03-3.01-5.95-3.8-7.64-5.59-9.82-12.4-19.09-20.17-27.29-18.71-19.06-42.92-32.22-68.96-37.12-23.66-4.22-48.16-3.21-70.94,4.7-16.06,5.42-30.8,14.23-43.53,25.4-1.23,1.13-3.15,2.75-4.69,4.47l-2.84,2.8s-.01.03-.02.05h0c-.41.35-.64.86-.64,1.39,0,1.04.9,1.9,2,1.9.49,0,.96-.17,1.33-.48h0s.01,0,.02-.01l3.84-3.78c2-1.68,4.07-3.48,6.14-5.05,10.36-8.04,21.9-14.36,34.12-18.89,21.17-7.52,44.16-9.71,66.39-6.78,24.69,3.73,48.19,15.36,66.6,32.58,6.19,6.03,11.6,12.06,16.32,19.53,2.6,4.09,4.71,7.66,6.77,11.8.57.98,1.17,2.26,1.83,3.64l1.64,3.82,1.75,4.6c.61,1.61,2.42,2.42,4.04,1.81l3.4-1.3c1.61-.62,2.42-2.42,1.81-4.04Z"/>
    <path d="M300.65,112.51h-16.55c-.09-1.87-.23-3.68-.4-5.41-.31-2.78-.62-5.56-.92-8.34-.04-.53-.39-3.56-2.37-4.62-.65-.35-1.43-.32-2.99-.35-2.3-.04-3.62,0-4.27.77-.72.86-.55,2.38-.36,3.06.3,2.02.79,3.98,1.09,6,.34,2.63.77,5.44.92,8.42,0,.16,0,.31.02.46h-18.28c-1.11,0-2.01.9-2.01,2.01v3.96c0,1.11.9,2.01,2.01,2.01h18.36c-.03,1.14-.07,2.25-.13,3.33-.08,1.58-.25,3.95-.64,6.82-.69,5.04-1.49,7.41-.19,8.57.74.65,1.85.65,3.84.63,1.55-.01,2.58-.02,3.45-.58.87-.55,1.35-1.5,1.98-5.85.61-4.15.78-7.45.84-8.7.08-1.65.12-3.08.15-4.22h16.44c1.11,0,2.01-.9,2.01-2.01v-3.96c0-1.11-.9-2.01-2.01-2.01Z"/>
  </g>
</svg>
